# xmcd CD database file
#
# Track frame offsets:
#	150
#	16200
#	34800
#	49725
#	61540
#	76087
#	92215
#	109765
#	126637
#	144262
#	159000
#	175090
#
# Disc length: 2578 seconds
#
# Revision: 2
# Processed by: cddbd v1.5.1PL0 Copyright (c) Steve Scherf et al.
# Submitted via: CDex 1.51
#
DISCID=8b0a100c
DTITLE=Die Flippers - Wünsche fliegen übers Meer
DYEAR=1981
DGENRE=Deutsch
TTITLE0=Mein Herz ist tätowiert mit Deinem Namen
TTITLE1=Donna Mexicana
TTITLE2=Liebst Du mich noch so wie früher
TTITLE3=Mit der Raupe fahr'n
TTITLE4=Zwei Schritte nach vorn
TTITLE5=Ich hab n'en Bungalow in Santa Nirgendwo
TTITLE6=Jackie
TTITLE7=Ein kleines Hotel bei Cuxhaven
TTITLE8=Jenny und Tom
TTITLE9=Die Zeit ist reif
TTITLE10=Wünsche fliegen über's Meer
TTITLE11=Du, bin ich zu weit gegangen
EXTD=YEAR: 1981
EXTT0=
EXTT1=
EXTT2=
EXTT3=
EXTT4=
EXTT5=
EXTT6=
EXTT7=
EXTT8=
EXTT9=
EXTT10=
EXTT11=
PLAYORDER=
